<?xml version="1.0" encoding="UTF-8" standalone="no"?>
<svg
   xmlns:dc="http://purl.org/dc/elements/1.1/"
   xmlns:cc="http://creativecommons.org/ns#"
   xmlns:rdf="http://www.w3.org/1999/02/22-rdf-syntax-ns#"
   xmlns:svg="http://www.w3.org/2000/svg"
   xmlns="http://www.w3.org/2000/svg"
   xmlns:sodipodi="http://sodipodi.sourceforge.net/DTD/sodipodi-0.dtd"
   xmlns:inkscape="http://www.inkscape.org/namespaces/inkscape"
   sodipodi:docname="button.svg"
   inkscape:version="1.0 (4035a4fb49, 2020-05-01)"
   id="svg75"
   version="1.1"
   viewBox="0 0 70 25"
   height="25mm"
   width="70mm">
  <defs
     id="defs69">
    <inkscape:path-effect
       fuse_tolerance="0"
       hide_knot="false"
       vertical_pattern="false"
       prop_units="false"
       tang_offset="0"
       normal_offset="0"
       spacing="0"
       scale_y_rel="false"
       prop_scale="1"
       copytype="single_stretched"
       pattern="M 0,5 C 0,2.24 2.24,0 5,0 7.76,0 10,2.24 10,5 10,7.76 7.76,10 5,10 2.24,10 0,7.76 0,5 Z"
       lpeversion="1"
       is_visible="true"
       id="path-effect99"
       effect="skeletal" />
    <inkscape:path-effect
       fuse_tolerance="0"
       hide_knot="false"
       vertical_pattern="false"
       prop_units="false"
       tang_offset="0"
       normal_offset="0"
       spacing="0"
       scale_y_rel="false"
       prop_scale="1"
       copytype="single_stretched"
       pattern="M 0,5 C 0,2.24 2.24,0 5,0 7.76,0 10,2.24 10,5 10,7.76 7.76,10 5,10 2.24,10 0,7.76 0,5 Z"
       lpeversion="1"
       is_visible="true"
       id="path-effect95"
       effect="skeletal" />
    <inkscape:path-effect
       fuse_tolerance="0"
       hide_knot="false"
       vertical_pattern="false"
       prop_units="false"
       tang_offset="0"
       normal_offset="0"
       spacing="0"
       scale_y_rel="false"
       prop_scale="1"
       copytype="single_stretched"
       pattern="M 0,5 C 0,2.24 2.24,0 5,0 7.76,0 10,2.24 10,5 10,7.76 7.76,10 5,10 2.24,10 0,7.76 0,5 Z"
       lpeversion="1"
       is_visible="true"
       id="path-effect91"
       effect="skeletal" />
    <inkscape:path-effect
       fuse_tolerance="0"
       hide_knot="false"
       vertical_pattern="false"
       prop_units="false"
       tang_offset="0"
       normal_offset="0"
       spacing="0"
       scale_y_rel="false"
       prop_scale="1"
       copytype="single_stretched"
       pattern="M 0,5 C 0,2.24 2.24,0 5,0 7.76,0 10,2.24 10,5 10,7.76 7.76,10 5,10 2.24,10 0,7.76 0,5 Z"
       lpeversion="1"
       is_visible="true"
       id="path-effect87"
       effect="skeletal" />
    <inkscape:path-effect
       fuse_tolerance="0"
       hide_knot="false"
       vertical_pattern="false"
       prop_units="false"
       tang_offset="0"
       normal_offset="0"
       spacing="0"
       scale_y_rel="false"
       prop_scale="1"
       copytype="single_stretched"
       pattern="M 0,5 C 0,2.24 2.24,0 5,0 7.76,0 10,2.24 10,5 10,7.76 7.76,10 5,10 2.24,10 0,7.76 0,5 Z"
       lpeversion="1"
       is_visible="true"
       id="path-effect83"
       effect="skeletal" />
  </defs>
  <sodipodi:namedview
     inkscape:window-maximized="0"
     inkscape:window-y="0"
     inkscape:window-x="0"
     inkscape:window-height="728"
     inkscape:window-width="1366"
     showgrid="false"
     inkscape:document-rotation="0"
     inkscape:current-layer="layer1"
     inkscape:document-units="mm"
     inkscape:cy="159.53451"
     inkscape:cx="400"
     inkscape:zoom="0.7"
     inkscape:pageshadow="2"
     inkscape:pageopacity="0.0"
     borderopacity="1.0"
     bordercolor="#666666"
     pagecolor="#ffffff"
     id="base" />
  <metadata
     id="metadata72">
    <rdf:RDF>
      <cc:Work
         rdf:about="">
        <dc:format>image/svg+xml</dc:format>
        <dc:type
           rdf:resource="http://purl.org/dc/dcmitype/StillImage" />
        <dc:title></dc:title>
      </cc:Work>
    </rdf:RDF>
  </metadata>
  <g
     id="layer1"
     inkscape:groupmode="layer"
     inkscape:label="Warstwa 1">
    <path
       d="m 3.2863869,24.556471 c 0.2084803,-1.251855 -0.023252,-2.562954 0.054597,-3.808402 0.031804,-0.508809 0.1059117,-1.014087 0.1588678,-1.52113 0.8198067,-7.873106 1.0074116,-15.8470402 0.1528032,-23.7244529 -0.081706,-0.3439798 0.1066207,-0.9962026 -0.245119,-1.031939 -1.0134527,-0.1029661 -2.087131,0.2030579 -2.97359775,0.7049195 -0.16288708,0.092217 -0.009209,2.7371132 0.0628995,3.118951 3.28418805,0.3751344 2.46186965,0.6399168 3.31774515,-1.1926417 0.2172899,-0.4652507 0.4377502,-0.9462841 0.8774747,-1.2338865 -0.1590569,0.5879717 0.011324,0.2266024 -1.2397433,0.2117072 -0.023656,-2.911e-4 -0.077735,-0.038255 -0.06909,-0.016235 0.107343,0.273444 0.3739205,0.7222255 0.5056732,0.9901338 0.3349001,0.7008043 0.2861461,1.5267383 0.3607494,2.29206128 0.1296593,0.96322509 0.063273,1.92785942 0.00651,2.89272332 -0.093263,1.449467 -0.099556,2.9011064 -0.029995,4.3513868 0.048297,0.9723662 0.042797,1.9451643 0.017666,2.918011 -0.018269,0.9782802 0.011041,1.9564052 0.033619,2.9343192 -0.087524,2.021147 -0.2309074,4.041037 -0.2837929,6.066411 -0.017373,1.562376 0.00312,3.127129 0.1251519,4.685523 0.030644,0.391326 0.046091,0.925786 0.2039567,1.31141 0.1865794,0.356338 0.3526422,0.724195 0.5597385,1.069013 0.040013,0.06662 0.1653304,0.07063 0.1812004,0.146707 0.054492,0.261224 0.2318787,0.646847 0.3281521,0.908732 0.5473092,1.222764 0.7021687,2.584098 1.0105253,3.881673 0.062075,0.287284 0.6399485,2.047671 0.9194702,2.167731 0.5955731,0.255815 1.2545155,0.326782 1.8817735,0.490172 0.2903596,-0.385688 0.6638316,-0.721045 0.8710785,-1.157065 0.202856,-0.426781 0.299425,-2.029042 0.321712,-2.434085 0.08494,-1.543618 0.108109,-3.094267 0.141554,-4.639688 0.03582,-4.246025 -0.003,1.183403 0.0021,-1.984645 1.28e-4,-0.07854 0.06768,-0.288121 0.0094,-0.235442 -0.09483,0.08574 -0.02655,0.302635 -0.142736,0.355983 -0.5036043,0.231243 -1.3541325,-0.05067 -1.6017918,0.445064 -0.2096132,0.419581 0.9373801,-0.03553 1.4060698,-0.05329 0.237819,-0.247846 0.516289,-0.462272 0.713456,-0.743537 0.565191,-0.806266 0.731764,-3.45308 0.876662,-4.486758 0.246862,-1.225624 0.338474,-2.459275 0.372466,-3.705576 -0.236353,-3.62149 0.440769,-7.1993311 0.969935,-10.7650307 0.447536,-3.84162607 0.925759,-7.6836912 1.180128,-11.5445801 0.04559,-0.6919674 0.08158,-1.3851829 0.08566,-2.0786386 0.0015,-0.2490426 0.176448,-0.7020556 -0.06905,-0.7439436 -0.909457,-0.155174 -1.836912,0.174688 -2.755369,0.262032 -0.06951,0.288315 -0.160471,0.5722893 -0.20853,0.8649452 -0.128527,0.7826595 -0.279424,2.4777152 -0.341011,3.2402968 -0.03939,0.4877318 -0.185572,2.513793 -0.1827,3.0687877 0.0025,0.4849977 0.05507,0.9684437 0.0826,1.4526657 0.132174,2.0246303 1.22992,3.7530614 1.791582,5.6504834 0.521231,2.827212 0.753687,5.6947442 0.953489,8.5604832 0.04704,1.289164 0.09302,2.578483 0.11627,3.868344 0.0033,0.183547 0.0032,0.367144 0.0063,0.550695 10e-4,0.0615 -0.04739,0.214827 0.0061,0.184431 0.07524,-0.04277 0.06317,-0.161164 0.09475,-0.241746 -0.376356,1.126675 -0.298606,2.369399 -0.304883,3.555815 -0.0019,1.21132 0.09233,2.418949 0.158084,3.627479 0.01128,0.541959 -0.02168,1.08386 -0.03429,1.62569 -0.0061,0.917463 -0.02423,1.834717 -0.02153,2.752218 -0.01204,1.532763 0.09245,2.498969 1.842726,2.918227 0.869682,-0.01984 2.540847,0.171405 3.367266,-0.297793 0.222958,-0.126585 0.405528,-0.31382 0.608291,-0.470728 0.146781,-0.273056 0.346499,-0.523704 0.440342,-0.819164 0.224712,-0.707493 -0.02678,-1.388295 -0.140152,-2.078103 -0.103506,-0.629751 -0.108731,-1.040633 -0.150073,-1.702977 -0.0395,-1.526457 -0.297231,-3.062626 -0.180836,-4.590515 0.425181,-1.606193 0.466084,-3.279102 0.742707,-4.909995 0.158952,-0.937131 1.321186,-6.6663551 1.343682,-6.7782432 0.833926,-5.026448 1.71248,-10.04807983 2.302313,-15.1110062 0.131291,-1.1269498 0.240838,-2.2567783 0.322283,-3.3884231 0.134649,-1.8708775 0.623582,-1.8603065 -0.196835,-1.7394655 -0.937067,0.132209 -2.030225,-0.137834 -2.811202,0.396628 -0.486739,0.3330999 -0.22273,1.1586525 -0.313106,1.7414923 -0.397195,2.5615519 -0.618898,5.1402691 -0.727004,7.72843354 -0.104806,2.02532876 0.0716,4.04762706 0.30419,6.05723686 0.24146,1.1076869 0.0817,2.1936808 -0.01781,3.3078407 -0.269724,3.3861726 -0.328468,6.7837716 -0.0876,10.1727896 -0.190623,0.483628 0.276931,1.010771 0.264968,1.485557 -3.97e-4,0.01548 -0.0432,-0.01753 -0.04641,-0.0024 -0.03693,0.174362 -0.04366,0.353776 -0.06548,0.530664 -0.112846,1.803341 -0.120951,3.611875 -0.04895,5.416835 0.08574,0.770827 0.08817,1.535827 0.06785,2.308826 -0.02857,1.832549 0.437067,2.29593 2.917159,1.491903 0.231103,-0.07492 0.616246,-1.652569 0.649352,-1.771292 0.553636,-3.844435 1.662469,-7.568898 2.713518,-11.298564 0.719857,-2.744892 1.58029,-5.441786 2.584381,-8.09353 0.348835,-1.1748323 0.1357,-2.3999124 0.0394,-3.5955967 -0.140377,-1.8139682 -0.805056,-3.5713966 -1.685676,-5.15228586 -0.325887,-0.44486796 -0.155281,-0.75596562 -0.220181,-1.24948184 -0.901663,0.04828 -1.821821,-0.043153 -2.704989,0.14483884 -0.123754,0.0263422 -0.210813,2.76068096 -0.216237,3.00508956 -0.11597,2.6239209 -0.150058,5.2501139 -0.139025,7.8762892 0.01026,3.5744278 0.0042,7.1499648 -0.12337,10.7221568 0.06537,2.513193 -0.144791,5.106622 0.36874,7.589789 0.02437,0.635683 -0.02341,1.272585 -0.03309,1.909109 0.147678,1.176705 0.179109,2.153557 3.122764,-0.614553 0.755039,-0.71001 0.675582,-1.959904 0.989385,-2.947691 0.58796,-1.850784 1.183191,-3.699934 1.715709,-5.567424 1.88463,-6.609172 2.150446,-8.154204 3.712618,-14.9094738 1.06812,-5.39062445 2.453164,-10.7561889 3.025944,-16.2361792 0.05736,-0.548752 0.585989,-1.551943 0.04389,-1.654641 -3.807804,-0.721363 -3.527711,1.20668 -4.084709,3.4682649 -0.729977,3.4544452 -1.220319,6.9663285 -1.358702,10.4965359 -0.03546,0.9044617 -0.04944,3.8679778 -0.05542,4.6754914 0.03887,7.6756248 -0.339611,15.3443858 -0.2878,23.0191808 0.02689,0.718484 0.03716,1.437783 0.08066,2.155452 0.09631,1.588997 0.168603,2.36583 3.051196,0.195855 0.399412,-0.30067 0.08398,-0.996418 0.114795,-1.495401 0.10465,-1.694894 0.122843,-2.615777 0.181419,-4.346165 0.329523,-7.83946 0.381958,-15.689798 -0.160821,-23.5213718 -0.08783,-1.2672937 -0.22819,-2.5303992 -0.342287,-3.79559874 -1.798605,1.98778564 0.463484,-3.43934616 -0.608467,-3.22348556 -0.7566,0.1523574 -2.548538,0.9467437 -1.886162,1.3428628 1.98193,1.1852475 4.924113,-3.2499295 5.730357,-4.2956647 1.116618,-1.6577323 2.090372,-3.406502 2.985611,-5.191862 0.09985,-0.199132 0.502716,-0.578657 0.281643,-0.606044 -2.220124,0.424278 -1.368557,0.57045 -2.580931,0.240002 -0.885893,3.6763766 -1.201599,7.4413857 -1.45021,11.2034716 -0.115512,3.577521 0.05411,7.1643627 0.639181,10.6980593 0.262543,1.5856931 0.51358,2.5989801 0.860811,4.1263051 0.180882,1.045229 0.529135,2.069122 0.591849,3.134543 0.05624,0.955423 -2.51e-4,1.928501 -0.02742,2.8835 -0.157388,3.22089 0.298704,6.41812 0.651722,9.610405 0.05061,0.464762 0.100494,0.929603 0.151828,1.394285 0.182806,1.654747 0.04213,2.996788 3.018242,0.700876 0.378241,-0.291795 0.06634,-0.953222 0.08777,-1.430454 0.03289,-0.732491 0.05014,-1.465598 0.0752,-2.198396 0.33121,-6.869833 0.518432,-13.773661 -0.05176,-20.635547 -0.03792,-0.323595 0.01545,-0.6716922 -0.113758,-0.9707851 -0.04605,-0.106602 -0.0634,0.2711352 -0.17566,0.3008429 -0.734104,0.1942687 -1.541398,0.07487 -2.252355,0.3416914 -0.150992,0.056667 0.145169,0.2979308 0.267245,0.4033199 0.273931,0.236483 0.539753,0.5874703 0.901195,0.6053937 0.704884,0.034954 1.37805,-0.3054678 2.067075,-0.4582015 0.256503,-0.2909908 0.545786,-0.5560853 0.769509,-0.8729723 0.478322,-0.6775087 1.102032,-1.9266609 1.180955,-2.7914491 0.529775,-1.3530558 0.924414,-2.74899495 1.442524,-4.10830618 0.42209,-0.91913902 0.07511,0.010777 -1.906215,0.22850086 -0.163493,0.017966 -0.377486,-0.35806583 -0.446987,-0.20899313 -0.233566,0.50098409 -0.162234,1.09383114 -0.221744,1.64337408 C 44.189713,2.9224355 44.020869,5.3072124 43.8698,7.2448532 43.604523,12.298209 43.085858,17.34835 43.175319,22.413677 c 0.03574,0.674633 0.0123,1.344979 -0.0019,2.018724 0.01704,1.672812 0.02503,2.199367 2.839794,0.652374 0.262519,-0.14428 0.06473,-0.595601 0.0971,-0.893402 0.123653,-2.132379 0.03141,-4.317825 0.541562,-6.41189 0.597509,-2.452657 2.515457,-7.7872576 3.163782,-9.6743151 2.173417,-6.7447933 4.528187,-13.4290883 6.627063,-20.1980699 0.437825,-1.412003 0.861764,-2.828513 1.262145,-4.251587 0.192709,-0.684944 0.723201,-1.390192 0.516752,-2.071121 -0.112418,-0.370784 -0.623705,0.459852 -0.935558,0.689778 -0.727774,0.0026 -1.623854,-0.457593 -2.183324,0.0079 -0.643964,0.535763 -0.496834,1.600314 -0.720108,2.407707 -0.27563,0.996729 -0.537271,1.997584 -0.776338,3.003709 -0.814321,3.4270826 -1.386779,6.8922442 -1.96097,10.3652453 -1.025281,6.1899981 -1.283491,12.4751037 -1.627981,18.7289437 -0.482264,8.754892 -0.694547,11.413459 -0.669883,20.33001 0.0088,3.19038 0.141523,6.379212 0.212286,9.568817 0.218141,3.250107 0.394348,8.320357 1.095534,11.786312 0.11231,0.555156 0.06032,1.506624 0.621776,1.581367 3.867589,0.51486 3.410646,-1.867678 3.636111,-4.356418 0.139562,-1.54052 0.183242,-3.088227 0.274862,-4.632341 0.342612,-7.827602 -0.636976,-15.65679 0.222975,-23.467813 0.321119,-2.916767 0.801814,-5.813749 1.202722,-8.720622 0.430048,-3.532073 0.905772,-7.058884 1.290148,-10.5962183 0.373565,-3.4378296 0.683551,-6.8824417 0.983477,-10.3274765 0.349713,-4.0168584 0.83212,-10.0926662 0.943824,-14.3682572 0.08682,-3.3231 0.579126,-3.376033 -0.904917,-2.060409 -0.836515,0.305951 -2.007092,0.18239 -2.509546,0.917853 -0.654572,0.958126 -0.338612,2.296262 -0.473631,3.448755 -0.163767,1.39789 -0.299633,2.799081 -0.422585,4.20115 -0.360703,4.1132024 -0.521716,8.2233932 -0.64575,12.3487963 -0.08209,5.3024504 0.482026,10.6005327 1.467882,15.8067547 0.392904,2.074902 1.183728,5.46937 1.985116,7.584886 0.226145,0.596981 0.574895,1.140006 0.862341,1.710008 0.387307,0.285814 0.705717,1.010978 1.161928,0.857443 2.699779,-0.908587 2.541579,-2.098481 2.566011,-4.209847 0.0092,-0.797483 -0.0387,-1.594951 -0.08685,-2.391032 -0.125687,-2.077718 -0.217437,-2.515661 -0.481121,-4.505485 -0.188179,-1.687214 -0.349919,-3.366228 -0.07949,-5.055967 0.146294,-0.914107 0.384289,-1.811257 0.560353,-2.7200994 C 63.324134,6.971823 63.446279,6.119204 63.858315,3.6075282 62.085125,3.5864802 65.185997,0.94009442 64.251314,0.41420103 63.951847,0.24567083 63.916618,1.1285253 63.579722,1.1964168 62.867807,1.3398818 62.033851,0.61280791 61.411175,0.98654583 60.93464,1.2725695 61.24584,2.085897 61.178604,2.6375998 61.084397,3.4106421 61.010805,4.1860575 60.926903,4.9602863 60.349532,10.670092 60.340872,16.404505 60.346098,22.135768 c 0.02426,0.905183 0.03197,1.81096 0.07277,2.715548 0.03899,0.86465 0.07073,2.519863 0.440518,3.454694 0.115115,0.291016 0.216376,0.835301 0.524208,0.778897 3.126346,-0.572852 2.702049,-0.973468 3.028714,-3.12245 0.403792,-6.553993 1.506808,-13.024983 2.630678,-19.4852184 0.382154,-2.2029491 0.346009,-2.1608685 0.742032,-3.9863994 0.03127,-0.1441328 0.253233,-0.4171141 0.106268,-0.4295048 -0.170501,-0.014375 -0.148067,0.3449928 -0.305192,0.4127332 -0.80853,0.3485783 -0.775406,0.3306948 -1.140288,0.075424 0.424159,0.02911 0.86491,0.2083564 1.272476,0.087329 0.334182,-0.099236 0.542071,-0.441894 0.779892,-0.696781 C 68.568737,1.8644103 68.732061,1.67814 68.630358,1.659291 67.758196,1.4976538 66.85656,1.3667992 65.975876,1.472584 c -0.170498,0.02048 -0.03989,0.3411668 -0.05531,0.5121982 -0.01834,0.2032594 -0.03062,0.4070182 -0.04592,0.6105273 -0.09124,2.681872 -0.454176,5.3379174 -0.606954,8.0181495 -0.08846,1.551808 -0.140867,3.10546 -0.211302,4.658189 -0.248189,5.331661 -0.250161,10.676266 0.04636,16.006088 0.109726,1.972265 0.283813,4.408612 0.662557,6.411495 0.07909,0.418245 0.232484,0.818957 0.348726,1.228434 0.149315,0.220945 0.188126,0.7229 0.447942,0.662836 0.976849,-0.225819 1.965637,-0.670874 2.670635,-1.383762 0.339961,-0.343768 0.09751,-0.962287 0.126691,-1.444882 0.12134,-2.007002 0.08553,-4.013946 0.05204,-6.022628 -0.249729,-3.002645 0.03166,-6.004494 0.115165,-9.00564 0.06723,-2.416002 0.03535,-3.993828 0.01791,-6.396709 -0.06635,-1.668206 -0.07328,-2.697746 -0.240874,-4.285868 -0.02937,-0.27837 -0.16112,-1.366885 -0.352345,-1.4708771 C 65.722302,7.8141855 67.336839,9.4198346 66.523518,8.5860561 66.642377,8.5171776 66.928439,8.5080085 66.880097,8.3794202 66.760479,8.0612312 66.390144,7.9064346 66.170495,7.6470004 65.741738,7.1405881 65.330229,6.619073 64.937111,6.0845226 63.344018,3.9182775 61.952042,1.619574 60.563924,-0.67969103 60.145766,-1.4032517 59.051579,-3.3272457 58.515531,-4.1598574 c -0.14214,-0.2207771 -0.209315,-0.6924527 -0.465617,-0.6353884 -1.022043,0.2275535 -2.071809,0.6436966 -2.827401,1.3685654 -0.324059,0.310882 -0.0045,0.8981311 -0.0035,1.3471972 0.0011,0.4877592 0.0065,0.9754993 0.0097,1.46324897 -0.04324,1.45073696 -0.107807,2.91729343 -0.601429,4.30015543 -0.205523,0.5757635 -0.48691,1.1215698 -0.734412,1.6805749 -1.003832,2.2672534 -0.871403,1.953878 -1.92927,4.2203504 -1.879992,3.7020275 -3.450424,7.5340085 -4.410509,11.5766705 -0.865426,3.7447 -1.436635,7.567279 -1.914173,11.380941 -0.123177,0.998506 -0.334452,2.617502 -0.428035,3.67855 -0.02376,0.269237 -0.311724,0.792667 -0.04198,0.809759 0.323336,0.02048 0.272415,-0.694671 0.586213,-0.775274 2.79074,-0.71683 2.170038,1.412195 2.237962,-1.660466 -0.007,-3.531447 -0.275053,-7.052115 -0.48387,-10.574914 0.07274,-2.564386 -0.03905,-5.123149 -0.393025,-7.663635 -0.08335,-1.070479 -0.518991,-2.076274 -0.683448,-3.129035 C 46.388414,12.943468 46.316543,11.71477 46.308214,11.588212 46.012238,8.8775155 45.628431,6.0689405 44.267935,3.6531221 44.072562,3.3061978 43.818522,2.9957498 43.593817,2.6670637 42.740168,1.9211195 42.315395,1.2964945 40.823804,1.6986258 c -1.572827,0.4240327 -2.193777,4.3720305 -2.436609,5.6293826 -0.426937,2.9930756 -0.481859,6.0433066 -1.079119,9.0137056 -0.124793,0.620631 -0.311854,1.227099 -0.467781,1.840648 -0.858287,2.508865 -1.491056,5.114297 -2.4756,7.579885 -0.01789,0.05262 -0.140232,0.404968 -0.127394,0.411214 0.83272,0.405095 1.684086,0.848815 2.601539,0.97455 0.298302,0.04088 0.645557,-1.915292 0.678931,-2.120185 0.03598,-0.38616 0.08387,-0.771395 0.10794,-1.15848 0.122579,-1.971678 0.124642,-3.952465 0.227073,-5.925473 0.140772,-2.711507 0.178419,-2.849534 0.420484,-5.593588 0.157239,-1.071626 0.292275,-2.146746 0.471715,-3.214878 0.893516,-5.3186922 0.862507,-3.8773332 1.586743,-9.64641176 0.375243,-2.98910804 0.752727,-7.35819934 0.88677,-10.38864724 0.06446,-1.457336 0.05082,-2.917079 0.07624,-4.375619 -0.07316,-1.31786 -0.09222,-3.697672 -0.494361,-5.134132 -0.09857,-0.352073 -0.14079,-0.910631 -0.500512,-0.975969 -1.020199,-0.185301 -2.185794,-0.177469 -3.093842,0.323117 -0.389374,0.214652 -1.702083,4.048865 -1.753521,4.189732 -0.895154,2.656713 -0.7552,2.318915 -1.739651,4.932735 -0.55363,1.469942 -0.9901,2.7739896 -1.843159,4.1048636 -0.641151,1.0002726 -1.399804,1.9202389 -2.087657,2.8889904 -1.024049,1.4422406 -2.03195,2.8958782 -3.047926,4.3438173 -2.33115,3.576077 -5.31145,8.0500216 -7.39136,11.6959847 -1.22403,2.145655 -2.351138,4.346364 -3.448064,6.559696 -1.696017,3.422155 -3.280775,6.856968 -4.391665,10.516888 -0.340392,1.121452 -0.512598,2.287209 -0.768897,3.430812 0.0022,0.718518 -0.131096,1.450329 0.0065,2.155555 0.351015,1.799315 1.466117,2.200294 3.438134,1.9612 0.767548,-0.09306 1.989775,-1.747996 2.317238,-2.305632 0.273452,-0.465658 0.441486,-0.985673 0.662229,-1.47851 C 18.140257,27.978338 16.867574,25.443725 15.385607,21.911838 13.671488,15.397681 12.58719,8.7268327 11.620169,2.0652458 11.513769,1.4384308 11.427833,0.80779622 11.300968,0.1848009 11.013467,-1.2270195 10.615609,-1.2054324 8.3810971,0.18369686 8.071858,0.37594151 8.2781872,0.90550867 8.2573081,1.2690342 8.1816153,2.5869161 8.1846932,3.9081638 8.1392894,5.2274366 8.0351544,8.2422303 7.6712174,10.941714 6.5901585,13.752036 c -1.5988072,3.865359 -2.05379,7.909411 -1.9100371,12.057137 -0.00294,0.232001 3.2780464,0.273665 3.2809926,0.04166 v 0 C 8.1004091,23.851028 8.2719634,21.85918 8.513461,19.868528 8.6607908,18.654097 8.83844,17.135263 9.1382764,15.922817 9.2447672,15.492201 9.4106636,15.07849 9.5468574,14.656326 9.9735139,13.451926 10.4666,12.253058 10.7907,11.015347 11.282242,9.1381806 11.516131,7.2013685 11.595974,5.2658049 11.583997,3.4708134 11.642569,2.8222363 11.400059,1.0822521 11.326379,0.55360363 11.56594,-0.25021261 11.08826,-0.48837294 7.4448325,-2.304905 7.9421206,0.41597553 7.8552222,2.3666743 c 0.04975,1.0246191 0.056483,2.0522343 0.1492498,3.0738575 0.5467863,6.0216502 1.9525395,11.9985352 4.307967,17.5693592 1.14691,2.568798 2.382001,4.944941 1.879151,7.856302 -0.418653,1.000414 -0.320319,0.941181 -0.946264,1.785433 -0.118569,0.159922 -0.501124,0.282537 -0.393018,0.449709 1.396709,2.15982 1.355928,0.528955 1.65617,-0.518184 0.404675,-0.97079 0.766772,-1.960446 1.214027,-2.912366 1.191818,-2.536624 3.956284,-7.649516 5.138262,-9.854081 1.145524,-2.136574 2.307131,-4.264508 3.449974,-6.402517 1.169004,-2.186951 2.290226,-4.3996017 3.485529,-6.5722896 0.993846,-1.8064983 2.053992,-3.5757202 3.080986,-5.36358 3.044975,-5.6321595 6.40403,-11.1947888 8.004275,-17.4535504 0.195659,-0.745907 0.404699,-1.488431 0.586976,-2.237719 0.117435,-0.48274 0.628012,-1.074139 0.311938,-1.457449 -2.648638,-3.212051 -2.388724,0.04545 -2.487956,1.158114 -0.09103,1.020746 -0.180653,2.041618 -0.270976,3.062426 -0.742262,9.1924054 -1.664573,18.3684604 -2.49142,27.553291 -0.18247,2.633093 -0.273174,3.219119 -0.260744,5.827655 0.01085,2.275136 0.08559,2.403483 0.234654,4.511201 0.03969,0.561213 0.09881,1.666381 0.13318,2.291362 -0.009,0.165897 -0.01365,0.332088 -0.02702,0.497691 -0.0074,0.09181 -0.01939,0.18333 -0.0353,0.27405 -0.007,0.0399 -0.06635,0.09351 -0.03327,0.116898 0.718655,0.508121 1.50097,0.921895 2.220126,1.429305 0.0977,0.06893 -0.38944,0.572702 0.186777,-0.12573 1.6138,-2.434771 2.437498,-5.296611 3.235574,-8.077166 0.157038,-0.698418 0.33995,-1.391518 0.471115,-2.095253 0.550732,-2.954841 0.580032,-5.983487 0.969539,-8.9586784 0.262032,-1.7579496 0.172826,-1.2444608 0.461695,-2.8795149 0.04102,-0.2321917 0.237146,-0.487372 0.127024,-0.6958637 -0.0694,-0.1313865 -0.280564,0.1529094 -0.427027,0.1278732 -0.398407,-0.068103 -1.567966,-0.6103784 -0.86932,-0.2906634 0.605409,1.0479022 0.94815,2.1254678 1.277781,3.2923988 0.12214,0.4323858 0.752165,2.8337134 0.864396,3.3314194 0.09093,0.403257 0.153887,0.812316 0.230831,1.218474 0.283414,1.586429 0.620395,3.160722 0.681215,4.776272 0.246091,2.426422 0.60113,4.867218 0.519117,7.308661 -0.301045,3.593922 -0.191727,7.210763 0.207124,10.793771 0.293587,1.920015 0.02812,2.788912 2.618446,3.663297 0.367007,0.123888 0.568635,-0.537705 0.77642,-0.864614 0.16958,-0.2668 0.248701,-0.582983 0.336677,-0.886626 0.352766,-1.217552 0.551842,-2.516921 0.779613,-3.755917 0.351714,-2.582455 0.362612,-2.430362 0.590791,-5.056375 0.138264,-1.591227 0.116226,-3.298589 0.470006,-4.868987 0.08604,-0.381889 0.234688,-0.746918 0.352031,-1.120377 1.276011,-3.794614 2.968739,-7.429355 4.665832,-11.050177 1.645282,-3.6645846 3.275062,-7.4421438 3.156241,-11.54156173 -0.02939,-0.51875527 -0.03858,-1.03905057 -0.08817,-1.55626577 -0.173503,-1.8096 -0.08962,-2.1924076 -3.080121,-1.5235807 -0.285181,0.063781 0.100174,0.5781069 0.193247,0.8551162 0.520173,1.5481987 0.991211,2.32868242 1.758627,3.86681446 1.465908,2.48978284 2.9494,4.97180964 4.862817,7.15575034 0.640059,0.7305527 2.319798,2.4666492 3.35884,2.8799892 0.614712,0.244537 1.308735,0.194642 1.963103,0.291963 0.25732,-0.08225 0.960376,-0.05316 0.771959,-0.246749 -0.501531,-0.515307 -1.284603,-0.647148 -1.936772,-0.950055 -0.02725,-0.01265 -0.08212,-0.02023 -0.0897,0.0088 -0.171847,0.658903 -0.287237,2.214947 -0.318601,2.699339 -0.05482,0.846723 -0.07952,1.695128 -0.119282,2.542691 -0.0278,2.425934 -0.06938,3.969412 0.0019,6.409789 0.08797,3.014734 0.390784,6.025214 0.266515,9.04479 0.02971,1.989367 0.06777,3.975197 0.199871,5.961028 0.02978,0.447664 -0.282474,1.123727 0.109797,1.341474 4.209801,2.336808 1.809472,-1.032962 2.906006,0.631219 0.337257,-2.480595 0.348475,-4.985834 0.387215,-7.48612 0.08239,-5.317746 0.144545,-10.642265 -0.130926,-15.955904 -0.07486,-1.55176 -0.132593,-3.104442 -0.224581,-4.655282 C 69.166083,9.4439517 69.077104,8.2779215 68.976276,7.1130762 68.84893,5.6418344 68.62632,4.1922213 68.748221,2.7123681 c 0.0071,-0.3276312 0.02816,-1.1296525 0.01069,-1.1393396 -0.810649,-0.4490988 -1.757037,-0.59159635 -2.622886,-0.92197071 -0.02294,-0.008753 0.0088,-0.0525737 0.02764,-0.0682766 C 66.984598,-0.10020839 66.617203,0.1034058 67.825793,0.23638946 64.75433,-1.2079717 63.627348,4.1127957 63.12909,5.8213524 62.86652,6.9842059 62.561865,8.1383505 62.341386,9.3099133 61.320353,14.735396 60.992976,20.270836 61.15189,25.782846 c 0.01656,0.511792 -0.364061,1.233686 0.04969,1.535375 0.678431,0.494683 1.688306,0.100851 2.498177,0.322416 0.160023,0.04378 0.179454,0.579369 0.25109,0.429728 0.160327,-0.334909 0.05999,-0.740383 0.07523,-1.111377 0.02938,-0.715306 0.04937,-1.431077 0.05862,-2.146925 0.01159,-0.896483 0.0026,-1.793114 0.0038,-2.689671 -0.04331,-5.664686 0.119724,-11.32884 0.366657,-16.988007 0.008,-0.7892248 0.03269,-1.5784581 0.02392,-2.3676744 C 64.47233,2.1572382 64.71549,1.4661204 64.408539,0.93954215 61.64336,-3.8041823 60.77196,0.80836475 60.159574,3.0447715 59.68824,5.411943 59.387139,6.6635738 59.124095,9.1021494 58.820449,11.917154 58.809932,14.772091 58.930174,17.59703 c 0.173517,2.21706 0.3678,4.432692 0.605197,6.644005 0.06313,0.588063 -0.25778,1.398685 0.208931,1.761981 0.565246,0.439997 1.431806,0.04831 2.147708,0.07247 0.154921,0.188316 0.309843,0.376633 0.464764,0.564949 -0.488913,-2.9972 -0.914913,-6.004556 -1.385504,-9.004799 C 60.185643,12.62689 59.311267,7.6200563 59.015526,2.5502783 c 0.04255,-1.3004712 0.05223,-2.60243382 0.12764,-3.9014138 0.868659,-14.9628355 -0.214902,7.7506032 0.61617,-8.312152 0.0181,-0.3498535 0.343903,-7.1579865 0.08285,-7.8598175 -0.470292,-1.264355 -1.640083,-2.142242 -2.460125,-3.213362 -0.43103,0.315389 -1.007261,0.494992 -1.293087,0.946167 -1.138333,1.796829 -2.19736,7.511588 -2.405936,8.638224 -1.813917,9.7979446 -2.707172,19.7492996 -3.051276,29.700578 0.01529,2.989557 0.0083,5.979311 0.04589,8.96867 0.04972,3.951081 0.20873,6.00897 0.183478,9.792729 -0.0701,10.503381 -0.17576,-2.904744 -0.128714,8.799803 0.0066,1.64846 0.04398,3.296656 0.06597,4.944983 0.08266,1.536375 0.125516,3.075408 0.247968,4.609121 0.192027,2.405121 -0.31991,4.734685 3.460319,4.269134 0.527753,-0.06499 0.400558,-0.995013 0.483134,-1.520303 0.529365,-3.367368 0.66865,-8.677267 0.822256,-11.743749 0.144664,-9.312968 0.248269,-10.457724 0.02808,-20.033874 -0.07477,-3.251913 -0.254928,-6.500689 -0.345363,-9.752203 -0.178215,-6.407591 -0.179811,-7.355266 -0.0021,-13.3614692 0.04914,-1.660369 0.127754,-3.319735 0.191632,-4.9796025 0.145701,-1.2223022 0.251576,-2.4500123 0.437102,-3.6669064 0.05154,-0.3380303 1.179333,-6.1502139 1.241989,-6.4753479 0.04784,-0.248241 1.071086,-5.248232 0.941972,-5.762113 -0.284845,-1.133717 -1.18849,-2.01328 -1.782733,-3.01992 -0.520952,0.237028 -1.141677,0.323548 -1.562852,0.711084 -1.218488,1.121172 -2.99303,5.283809 -3.360356,6.138766 -2.848123,6.6290716 -5.04625,13.52045985 -6.696398,20.5417293 -0.411639,2.1006041 -0.881385,4.1906517 -1.234914,6.3018117 -0.603128,3.601697 -0.788442,7.234038 -0.53236,10.87321 0.03066,0.283024 -0.177419,0.757064 0.09198,0.84907 0.847127,0.289312 1.792639,0.01306 2.683684,0.09888 0.05801,0.0056 0.01966,0.209529 0.05743,0.165137 0.09644,-0.113382 -0.07255,-0.805789 -0.06408,-0.980315 -0.097,-0.532494 0.420889,-1.157318 0.351298,-1.746363 0.728165,-5.03689 1.560751,-10.071015 1.572607,-15.1793564 0.03327,-3.0853557 0.10972,-3.5088006 -0.108347,-6.42282145 -0.04808,-0.64244571 -0.06698,-1.29363907 -0.214329,-1.92080592 -0.124549,-0.53015583 -0.09372,-1.30766233 -0.594449,-1.52178563 -1.842628,-0.7879509 -2.117548,-0.077645 -2.733892,0.8271535 -0.580478,1.33756542 -1.060564,2.7343671 -1.172729,4.1998967 -0.116623,-0.1186116 -0.04809,-0.07194 -0.244774,0.2628564 -0.401582,0.6835965 -0.639882,1.4515965 -1.07012,2.1188433 0.730657,0.089051 1.592878,0.034985 1.33909,0.5453859 -0.06009,0.1208166 -0.13109,-0.283958 -0.26407,-0.3068114 -0.862949,-0.1482995 -1.756137,-0.3316933 -2.619999,-0.1888231 -0.645464,0.1067504 -0.290756,1.7888545 -0.692692,1.8363967 -0.709748,6.8894734 -0.532781,13.8530554 0.0055,20.7486864 0.06743,0.748905 0.116499,1.499695 0.202296,2.24672 0.05967,0.519578 -0.203274,1.264438 0.233931,1.551445 3.89959,2.559926 3.008593,-0.684252 2.979169,-2.615068 -0.263629,-3.116261 -0.821013,-6.211988 -0.848911,-9.340904 -0.05606,-2.177024 -0.02908,-4.363522 -0.325276,-6.524218 -0.641212,-4.7135981 -1.424352,-9.4372578 -1.22991,-14.2133888 0.0083,-2.113203 -0.03891,-2.4157667 0.138612,-4.4177521 0.202457,-2.2830922 0.617966,-4.5476231 0.703498,-6.8413901 -0.170217,-0.620015 0.04158,-1.530756 -0.510653,-1.860045 -1.989299,-1.18619 -3.098179,0.780602 -3.899128,1.970451 -0.572524,0.850513 -1.795701,2.8200753 -2.309172,3.6395589 -0.406125,0.622178 -0.801756,1.2513315 -1.218372,1.8665338 -0.288274,0.4256871 -0.922499,0.7420636 -0.895858,1.2554857 0.01992,0.3841412 1.267778,0.3224073 0.991632,0.5901875 -0.680736,0.6601183 -1.870427,0.4893459 -2.654628,1.0224384 -0.918096,0.6241145 0.878377,3.21775054 -0.475753,3.29628075 C 30.182198,4.03753 30.197144,8.8598144 30.469549,13.700055 c 0.282334,5.016708 0.441372,5.090507 0.771966,9.686554 0.07164,0.996013 0.106561,1.994328 0.159843,2.991491 0.01527,1.651842 0.0011,2.787161 0.106939,4.417497 0.03522,0.542425 -0.271811,1.287031 0.155263,1.623293 2.639513,2.078257 3.020267,1.54032 3.376404,-0.175424 0.150582,-0.725458 0.236818,-1.462799 0.355227,-2.194197 0.105473,-1.114849 0.242281,-2.227176 0.316423,-3.344548 0.439142,-6.618249 0.145984,-13.271605 -0.363953,-19.8759234 -0.09493,-2.0372599 -0.178771,-2.4262418 -0.03664,-4.3772089 0.250309,-3.43591939 1.105992,-6.7926778 1.450197,-10.2174732 0.242895,-2.3249855 1.15552,-4.0461205 -2.67144,-4.6911195 -0.569616,-0.096 -0.579165,1.00374 -0.797515,1.538531 -2.103623,5.1522979 -3.249845,10.64548994 -4.583004,16.0237533 -1.39237,6.4230187 -1.976414,8.6358547 -2.968209,15.0847527 -0.294913,1.917605 -0.509,3.847077 -0.721849,5.775518 -0.115553,1.046923 -0.766034,2.223377 -0.263169,3.148865 2.397922,4.413208 2.608628,2.052119 2.73385,1.060921 -0.0095,-0.638918 -0.05614,-1.277712 -0.03787,-1.915885 0.507733,-2.480883 0.305853,-5.069441 0.375227,-7.579902 C 27.708018,17.102142 27.721568,13.522063 27.709828,9.9427471 27.699509,7.3305484 27.6207,4.7207143 27.497439,2.1114327 c 0.0011,-0.1875378 0.05827,-2.74594477 0.01849,-2.75442197 -0.869854,-0.18534062 -1.772568,-0.14831052 -2.658851,-0.22246579 -0.0077,-0.04506 0.0206,-0.12136181 -0.02297,-0.13518014 -0.03906,-0.012387 -0.01631,0.0803603 -0.02189,0.12095008 -0.07795,0.56680385 -0.08164,1.06155633 0.08087,1.61740798 0.05243,0.17934677 0.127602,0.35124924 0.191402,0.52687384 0.596942,1.3830564 1.163177,2.811968 1.477128,4.284491 0.08258,0.8112974 0.190074,1.6223498 0.225234,2.4371014 -0.442026,0.5466505 -0.729433,0.8069368 -1.116609,1.478902 -1.208331,2.0971209 -1.896745,4.4211819 -2.570538,6.7308259 -0.251396,0.999727 -0.535457,1.991804 -0.754187,2.999182 -0.61445,2.8299 -0.841483,5.704749 -1.158833,8.575358 -0.03221,0.21708 -0.07173,0.4332 -0.09663,0.651238 -0.009,0.07854 -0.08136,0.21736 -0.0048,0.237114 0.723967,0.186817 1.494044,0.147296 2.218039,0.334002 0.08577,0.02212 0.02784,0.178578 0.07054,0.256178 0.105563,0.191868 -0.422812,-1.288849 -0.05099,-0.654987 -0.02188,-0.771247 -0.02328,-1.534438 0.0652,-2.303508 0.07627,-1.806629 0.07553,-3.617254 -0.03412,-5.422698 -0.03786,-0.31384 -0.09578,-0.625655 -0.117768,-0.941004 -0.0034,-0.04944 -0.0116,0.125416 0.03404,0.144735 0.09031,0.03822 0.134076,-1.252542 0.190496,-1.221491 0.222994,-3.37033 0.178987,-6.745513 0.0094,-10.1174063 -0.06177,-1.191477 -0.09317,-2.3799853 -0.110364,-3.5723039 -0.114493,-1.8686536 -0.247683,-3.7398173 0.0094,-5.60539256 0.343751,-2.55852184 0.719417,-5.12964794 0.833653,-7.71134194 0.02785,-0.6293448 0.40034,-1.3906564 0.01603,-1.8898143 -0.646416,-0.839598 -1.818498,-1.088199 -2.727747,-1.632299 -0.174851,0.180426 -0.40961,0.317861 -0.524553,0.541276 -0.66388,1.2903744 -1.261084,4.0195364 -1.495138,5.1358254 -1.053595,5.02496548 -1.699929,10.1306157 -2.130473,15.2433708 -0.124427,2.3095568 -0.195975,4.6218308 -0.328398,6.9309428 -0.09527,1.661348 -0.314938,3.318686 -0.332039,4.985433 -0.186742,1.702701 -0.324525,3.407186 -0.04935,5.115498 0.03374,0.200561 0.401267,2.496137 0.622541,2.671404 0.111705,0.08848 0.210962,-0.686871 0.290828,-0.313338 0.03149,-0.02756 0.130578,-0.06151 0.09448,-0.08268 -0.06122,-0.0359 -0.141742,0.0079 -0.212494,0.01347 -0.293187,0.02323 -1.302713,0.03544 -1.349386,0.09521 -0.07585,0.09715 0.244708,0.02968 0.367062,0.04453 -0.05969,0.02188 -0.188376,0.0028 -0.17907,0.06566 0.02353,0.159017 0.188943,0.263718 0.249828,0.412488 0.0385,0.09409 0.0348,0.200631 0.04257,0.301993 0.0034,0.04383 -0.02761,-0.08467 -0.02928,-0.128598 -0.0057,-0.149709 0.0053,-0.299588 0.0072,-0.449395 0.0021,-0.162306 0.0032,-0.324628 0.0048,-0.486942 2.92e-4,-0.916432 -0.02442,-1.832417 -0.03727,-2.748728 -0.01255,-0.529423 -0.04,-1.060623 0.0089,-1.589055 0.09913,-1.237749 0.1301,-2.479959 0.08135,-3.721209 -0.037,-0.734629 -0.04388,-0.999172 -0.102306,-1.706885 -0.01546,-0.187239 -0.03604,-0.374023 -0.05513,-0.560927 -0.0087,-0.08535 0.05175,-0.286716 -0.02829,-0.255822 -0.117477,0.04535 -0.125372,0.219012 -0.175554,0.334506 -0.01917,0.04411 0.05456,-0.07922 0.08184,-0.118826 0.858835,-1.760578 0.668976,-3.822427 0.667546,-5.723301 -0.164857,-3.0704818 -0.598053,-6.1091925 -1.37379,-9.0889516 -0.489368,-1.7016898 -1.418984,-3.27475377 -1.539956,-5.0710287 -0.01163,-0.3780656 -0.05121,-0.7563052 -0.03488,-1.1341971 0.02052,-0.4748715 0.10029,-0.9453435 0.145186,-1.4185331 0.201636,-2.1251809 0.42835,-4.2792509 0.136939,-6.4068925 -0.960058,-0.122717 -1.923289,-0.513555 -2.880173,-0.36815 -0.322251,0.04897 -0.338577,0.563339 -0.440905,0.872811 -0.226591,0.6852827 -0.395758,1.3896395 -0.540959,2.0966562 C 9.6646433,-4.3533856 9.3087303,-0.43695971 9.0679933,3.4670558 8.9639814,7.1822026 8.8797875,10.903513 9.2747787,14.605789 c 0.017849,0.176231 0.088096,0.704362 0.068232,0.945808 -0.064584,0.784998 -0.4593696,1.518217 -0.5351809,2.301807 -0.2206898,1.352129 -0.1483135,0.716787 -0.2458241,2.072551 -0.021751,0.302444 -0.051858,0.604458 -0.063388,0.907464 -0.00119,0.03095 0.00169,0.558643 0.02824,0.54544 0.1492041,-0.07422 0.2682531,-0.197793 0.4023796,-0.29669 0.3654473,0.01283 1.4140767,-0.142501 1.0963417,0.0385 -0.5430656,0.30936 -1.2670297,0.122961 -1.8355491,0.382596 -0.6407034,0.2926 -0.8075033,2.801873 -0.8567849,3.325629 -0.1154792,1.949702 -0.1400857,3.893514 -0.00254,5.843726 0.013637,0.193363 -0.1140346,0.562724 0.079347,0.576088 0.2787637,0.01926 0.4354367,-0.350309 0.6531549,-0.525463 2.4489901,0.840443 1.4246161,0.880242 1.1840681,-0.71853 C 8.9804847,28.561723 8.7657309,27.090841 8.1204468,25.753689 7.8650401,25.118203 7.5973685,24.468475 7.1550003,23.932677 7.0461044,23.800782 6.90637,23.696442 6.7687065,23.594935 6.7152625,23.555529 6.5693943,23.449645 6.5868089,23.513722 6.6814977,23.862134 6.8734791,24.17648 7.0168142,24.507858 7.174444,24.119592 7.1905327,23.588796 7.2214784,23.193922 7.3436212,21.635345 7.3637248,20.070382 7.3458551,18.507827 7.292182,16.484082 7.1474713,14.4658 7.0588541,12.446413 7.0853201,11.466799 7.1239501,10.487064 7.107134,9.506878 7.0815223,8.5288267 7.0629477,7.5505529 7.0833109,6.5722023 7.1321082,5.1535459 7.1365347,3.734785 7.1302308,2.3153807 7.13566,1.2458092 7.1818565,0.17371802 7.097936,-0.89377924 6.9915708,-1.9306589 6.8969886,-3.0031616 6.5021721,-3.9749383 5.777929,-5.5391743 5.5523359,-6.4891451 3.3888396,-6.4269378 c -0.311079,0.00895 -0.5590902,0.2735296 -0.8386355,0.4102946 -0.208335,0.1940282 -0.4418781,0.3641056 -0.6250049,0.5820852 -0.6141015,0.7309768 -0.99426752,1.6625951 -1.21044826,2.5828921 -0.0461658,0.1965309 -0.2706148,0.5171959 -0.0862587,0.599467 0.82496216,0.3681491 1.76962996,0.364411 2.65444506,0.5466165 0.072109,-0.3818378 0.2257864,-3.0267344 0.062899,-3.118951 -0.8864668,-0.5018616 -1.960145,-0.8078856 -2.9735977,-0.7049195 -0.35173974,0.035736 -0.16341277,0.6879592 -0.24511916,1.031939 -0.8546083,7.8774127 -0.66700345,15.8513469 0.15280347,23.7244529 0.0529558,0.507043 0.1270635,1.012321 0.1588675,1.52113 0.0778491,1.245448 -0.15388323,2.556547 0.0545972,3.808402 0,0.197496 2.79301189,0.197496 2.79301189,0 z"
       id="path157"
       style="fill:#ffffff;stroke-width:0.264583" />
  </g>
</svg>
