<?xml version="1.0" encoding="UTF-8" standalone="no"?>
<svg
   xmlns:dc="http://purl.org/dc/elements/1.1/"
   xmlns:cc="http://creativecommons.org/ns#"
   xmlns:rdf="http://www.w3.org/1999/02/22-rdf-syntax-ns#"
   xmlns:svg="http://www.w3.org/2000/svg"
   xmlns="http://www.w3.org/2000/svg"
   xmlns:sodipodi="http://sodipodi.sourceforge.net/DTD/sodipodi-0.dtd"
   xmlns:inkscape="http://www.inkscape.org/namespaces/inkscape"
   sodipodi:docname="h1bgk.svg"
   inkscape:version="1.0 (4035a4fb49, 2020-05-01)"
   id="svg29"
   version="1.1"
   viewBox="0 0 174.10583 26.452223"
   height="26.452223mm"
   width="174.10583mm">
  <defs
     id="defs23" />
  <sodipodi:namedview
     inkscape:window-maximized="0"
     inkscape:window-y="0"
     inkscape:window-x="0"
     inkscape:window-height="728"
     inkscape:window-width="1366"
     fit-margin-bottom="0"
     fit-margin-right="0"
     fit-margin-left="0"
     fit-margin-top="0"
     showgrid="false"
     inkscape:document-rotation="0"
     inkscape:current-layer="layer1"
     inkscape:document-units="mm"
     inkscape:cy="380.17096"
     inkscape:cx="329.03298"
     inkscape:zoom="0.35"
     inkscape:pageshadow="2"
     inkscape:pageopacity="0.0"
     borderopacity="1.0"
     bordercolor="#666666"
     pagecolor="#ffffff"
     id="base" />
  <metadata
     id="metadata26">
    <rdf:RDF>
      <cc:Work
         rdf:about="">
        <dc:format>image/svg+xml</dc:format>
        <dc:type
           rdf:resource="http://purl.org/dc/dcmitype/StillImage" />
        <dc:title></dc:title>
      </cc:Work>
    </rdf:RDF>
  </metadata>
  <g
     transform="translate(-18.776692,-47.579766)"
     id="layer1"
     inkscape:groupmode="layer"
     inkscape:label="Warstwa 1">
    <path
       d="m 19.98626,61.309315 c 2.157375,-0.06949 4.316235,-0.03205 6.47429,-0.03661 4.425061,-0.10468 8.846407,-0.07302 13.27199,-0.0182 13.058957,-0.09122 26.099528,0.715346 39.132199,1.433102 11.750099,0.803585 23.491761,1.719569 35.240011,2.548321 9.8127,0.497859 19.61416,1.11402 29.39007,2.102475 9.35778,0.789344 18.75455,0.905888 28.13789,1.15576 2.9874,0.07373 5.97462,0.154578 8.9619,0.233339 0,0 12.28791,-8.919022 12.28791,-8.919022 v 0 c -3.12427,0.04988 -6.24872,0.09536 -9.37354,0.08483 -9.35818,-0.04039 -18.72228,-0.231193 -28.04758,-1.081047 -9.90864,-0.839492 -19.82697,-1.466538 -29.76344,-1.884276 -11.84373,-0.71275 -23.6579,-1.849802 -35.514346,-2.371783 -12.803028,-0.667401 -25.603763,-1.371991 -38.409448,-1.987351 -4.235963,-0.244687 -8.471254,-0.475401 -12.716203,-0.448699 -2.124448,-0.0045 -4.249809,0.03393 -6.373513,-0.03661 0,0 -12.69819,9.225775 -12.69819,9.225775 z"
       id="path35"
       style="fill:#b3b3b3;stroke-width:0.264583" />
    <path
       d="m 18.776692,71.87008 c 5.593615,-0.195239 11.189995,-0.225005 16.786337,-0.200261 7.002936,-0.01762 14.005729,0.0029 21.00871,-0.03706 8.965819,-0.07945 17.928831,-0.05612 26.888726,0.296381 10.876092,0.379796 21.748375,0.852265 32.622045,1.294059 10.21892,0.423566 20.44415,0.03798 30.6665,0.164303 8.5524,0.105686 11.17542,0.281459 19.58758,0.644488 0,0 10.68851,-7.702875 10.68851,-7.702875 v 0 c -16.4282,-0.559512 -32.86131,-0.964706 -49.29022,-1.50436 -10.85625,-0.384977 -21.70987,-0.852956 -32.562232,-1.328852 -8.868399,-0.408834 -17.739127,-0.662315 -26.618139,-0.569137 -6.968971,-0.04037 -13.93776,-0.01913 -20.906687,-0.03706 -5.412562,0.02365 -10.825514,0.0043 -16.235063,-0.200263 0,0 -12.636067,9.18064 -12.636067,9.18064 z"
       id="path37"
       style="fill:#b3b3b3;stroke-width:0.264583" />
    <path
       d="m 187.69908,48.318824 c -7.3458,0.428538 -14.69933,0.650394 -22.05539,0.802931 -7.16355,0.162296 -14.32932,0.127008 -21.49414,0.163505 -5.87791,-0.0259 -11.75867,0.03551 -17.63497,-0.121211 -6.06492,-0.148188 -12.11059,-0.710451 -18.16174,-1.123246 -4.19918,-0.293566 -8.406529,-0.347057 -12.613769,-0.377153 -3.880663,0.02455 -7.761113,-0.01828 -11.641635,-0.04109 -2.573258,-0.0037 -5.146453,-0.03278 -7.719708,-0.03365 -2.193293,0.0024 -4.386631,7.93e-4 -6.579915,-0.0089 -2.298822,-0.0024 -4.597583,0.01347 -6.896373,0.02408 -3.674975,0.02635 -7.349712,0.06144 -11.024817,0.07083 -3.493635,-0.0885 -6.970921,-0.03054 -10.454465,0.233603 -0.482984,0.05481 -0.965965,0.109627 -1.448946,0.164441 0,0 -12.382838,9.267081 -12.382838,9.267081 v 0 c 0.469424,-0.08082 0.938847,-0.161631 1.408274,-0.242448 3.504671,-0.332925 7.004605,-0.569219 10.529615,-0.451067 3.610112,0.0093 7.219838,0.04427 10.829816,0.07084 2.276634,0.01066 4.553233,0.02659 6.829899,0.02418 2.201965,-0.0095 4.403979,-0.01119 6.605952,-0.0095 2.609006,-0.0021 5.217927,-0.03369 7.826915,-0.04279 3.911772,-0.03029 7.823615,-0.08533 11.735551,-0.03886 4.235773,0.01368 8.472757,0.05549 12.705776,0.217059 6.073318,0.257773 12.127078,0.781659 18.194118,1.139243 5.93845,0.245221 11.88412,-0.0083 17.82614,0.0506 7.22229,-1.91e-4 14.44312,-0.115612 21.66405,-0.250053 7.09456,-0.177273 14.20143,-0.541305 21.29583,-0.292711 0,0 12.65677,-9.195683 12.65677,-9.195683 z"
       id="path41"
       style="fill:#f2f2f2;stroke-width:0.264583" />
    <path
       transform="scale(0.26458333)"
       id="path43"
       d="m 489.426,276.44205 c 13.82716,-0.52488 35.6843,-0.5222 48.57143,0.006 12.88713,0.52816 1.574,0.95761 -25.14029,0.95432 -26.71428,-0.003 -37.2583,-0.43542 -23.43114,-0.96029 z"
       style="fill:#f2f2f2;stroke-width:2.85714" />
    <path
       transform="scale(0.26458333)"
       id="path45"
       d="M 501.42857,275.42058 C 448,274.35581 330.65044,272.52518 240.65178,271.35252 L 77.017845,269.22042 97.794637,254.01368 118.57143,238.80694 220,238.19645 c 117.22175,-0.70554 99.98603,-3.41094 -43.75219,-6.86755 l -93.752185,-2.25455 8.037902,-6.57803 8.037902,-6.57802 150.000001,1.03256 c 133.51397,0.91908 201.40817,2.49589 416.77128,9.67932 l 58.19983,1.94125 -21.03914,15 c -17.90754,12.76727 -22.95694,15 -33.92329,15 -10.14082,0 -15.87885,2.12918 -26.94931,10 -12.12986,8.62401 -16.06,9.91642 -28.56229,9.39256 -7.9734,-0.3341 -58.21137,-1.47863 -111.63994,-2.54341 z M 350.65056,239.34343 c -5.92791,-0.6185 -14.92791,-0.60813 -20,0.0231 -5.07209,0.63117 -0.22199,1.13721 10.77801,1.12454 11,-0.0127 15.1499,-0.52909 9.22199,-1.1476 z"
       style="fill:#f2f2f2;stroke-width:2.85714" />
    <path
       transform="scale(0.26458333)"
       id="path47"
       d="m 341.42857,272.39316 c -7.85714,-1.04091 -56.71428,-2.1491 -108.57143,-2.46266 C 181,269.61695 126.37687,268.54003 111.4724,267.53734 L 84.373369,265.71429 99.842992,254.37975 C 119.54073,239.9473 126.03887,239.1213 222.31148,238.81252 c 51.78433,-0.16609 74.59097,-1.17574 73.31179,-3.2455 -1.15326,-1.86602 -14.26087,-2.82085 -34.59336,-2.51997 -18.00509,0.26643 -33.53111,-0.31015 -34.50227,-1.28131 -0.97115,-0.97116 -25.01573,-1.90528 -53.4324,-2.07584 -28.41667,-0.17055 -59.38095,-1.1481 -68.80953,-2.17232 -16.452798,-1.78727 -16.859222,-2.02216 -10.096692,-5.83524 5.909852,-3.3323 37.241542,-3.68275 194.285712,-2.17312 162.29084,1.56006 424.71213,8.43955 427.47913,11.20656 2.92908,2.92906 -36.22075,24.80729 -47.38243,26.47889 -7.07143,1.05903 -18.64286,5.33776 -25.71429,9.50828 L 630,274.28571 H 492.85714 c -75.42857,0 -143.57143,-0.85164 -151.42857,-1.89255 z m 7.89643,-32.97582 c -3.51411,-0.67818 -9.94268,-0.69573 -14.28571,-0.039 -4.34304,0.65673 -1.46786,1.2116 6.38928,1.23305 7.85714,0.0215 11.41054,-0.51587 7.89643,-1.19405 z"
       style="fill:#f2f2f2;stroke-width:2.85714" />
    <path
       transform="scale(0.26458333)"
       id="path49"
       d="m 340,272.53332 c -8.64286,-0.96382 -58.14286,-2.08707 -110,-2.49611 -51.85714,-0.40904 -105.83745,-1.54903 -119.95625,-2.53332 l -25.670531,-1.7896 15.469698,-11.33454 c 19.660253,-14.40491 26.288893,-15.25744 121.039993,-15.56723 50.83979,-0.16622 73.16273,-1.17521 71.88106,-3.249 -1.15018,-1.86103 -13.79165,-2.81798 -33.1546,-2.50979 -17.21259,0.27397 -32.09478,-0.30105 -33.07154,-1.2778 -0.97676,-0.97676 -25.02592,-1.91547 -53.44259,-2.08603 -28.41667,-0.17055 -59.38095,-1.1481 -68.80953,-2.17232 -16.452798,-1.78727 -16.859222,-2.02216 -10.096692,-5.83524 5.909942,-3.33235 37.239172,-3.68248 194.285712,-2.17134 170.86078,1.64407 424.65144,8.37707 427.61898,11.34463 3.0126,3.01259 -35.77702,24.49054 -47.52228,26.31326 -7.07143,1.09739 -19.57423,5.79457 -27.784,10.43817 l -14.92686,8.44291 -135.07314,-0.88213 C 416.4972,274.68267 348.64286,273.49713 340,272.53332 Z m 7.85714,-33.07425 c -2.75,-0.71865 -7.25,-0.71865 -10,0 -2.75,0.71865 -0.5,1.30664 5,1.30664 5.5,0 7.75,-0.58799 5,-1.30664 z"
       style="fill:#f2f2f2;stroke-width:2.85714" />
    <path
       transform="scale(0.26458333)"
       id="path51"
       d="m 352.918,273.36909 c -0.51794,-0.50414 -41.24352,-1.4884 -90.50129,-2.18725 -49.25776,-0.69885 -109.21011,-2.03092 -133.22743,-2.96015 -48.722458,-1.88506 -48.813385,-1.96058 -22.60942,-18.77905 L 121.29193,240 l 85.06832,-0.99682 c 50.96874,-0.59725 85.06832,-2.08207 85.06832,-3.7042 0,-1.53607 -13.90605,-2.76981 -32.14286,-2.8517 -54.66293,-0.24547 -167.772286,-4.26719 -169.533026,-6.02793 -0.918865,-0.91886 1.27247,-3.24578 4.869633,-5.17092 11.438163,-6.12152 505.716423,0.66414 599.550173,8.23088 l 24.17251,1.94926 -18.45823,11.82567 c -10.152,6.50411 -25.52963,13.42811 -34.17248,15.38666 -8.64286,1.95855 -21.22455,6.7504 -27.95935,10.64857 l -12.24503,7.08757 -135.82508,-1.04566 c -74.7038,-0.57512 -136.24888,-1.45814 -136.76683,-1.96229 z m -6.48943,-33.83275 c -1.96428,-0.79261 -5.17857,-0.79261 -7.14286,0 -1.96428,0.79261 -0.35714,1.4411 3.57143,1.4411 3.92857,0 5.53572,-0.64849 3.57143,-1.4411 z"
       style="fill:#f2f2f2;stroke-width:2.85714" />
    <path
       transform="scale(0.26458333)"
       id="path53"
       d="m 459.76191,274.66321 c -0.65477,-0.57808 -72.82094,-1.8903 -160.36927,-2.91603 -140.88153,-1.65059 -210.229677,-3.6543 -213.186105,-6.15968 -0.514977,-0.43641 5.913594,-5.84694 14.285715,-12.0234 19.08558,-14.08023 24.18089,-14.76804 112.64416,-15.20567 37.86788,-0.18734 70.65359,-1.52015 72.85714,-2.96179 2.56484,-1.67803 -7.30221,-2.67206 -27.42212,-2.76259 -52.72048,-0.23719 -167.053097,-4.44905 -168.823259,-6.21921 -0.916382,-0.91638 1.28574,-3.24596 4.893605,-5.17683 11.385824,-6.09351 522.905084,0.90585 602.155454,8.23957 l 21.08294,1.95099 -15.71977,10.8121 c -8.64589,5.94665 -23.95211,13.16633 -34.01383,16.04372 -10.06174,2.8774 -23.67397,7.97625 -30.24937,11.33077 -11.3896,5.81054 -15.8586,6.09913 -94.45006,6.09913 -45.37211,0 -83.03048,-0.47299 -83.68523,-1.05108 z"
       style="fill:#f2f2f2;stroke-width:2.85714" />
    <path
       transform="scale(0.26458333)"
       id="path55"
       d="m 290.54771,272.42944 c -84.5559,-1.30122 -165.5559,-3.34445 -180,-4.54051 L 84.285714,265.71429 100,254.02423 c 19.28724,-14.34803 23.97843,-15.0553 105.71429,-15.93824 66.21815,-0.71531 103.3118,-4.33811 51.42857,-5.02283 -59.58504,-0.78637 -165.741494,-4.99513 -167.38254,-6.63617 -0.923065,-0.92307 1.270411,-3.2564 4.87439,-5.1852 11.55039,-6.18158 522.46075,0.78196 602.34163,8.20972 l 21.26209,1.97706 -15.58363,10.72194 c -8.571,5.89707 -23.95786,13.11674 -34.19297,16.04373 -10.23514,2.92698 -23.98923,8.0664 -30.56463,11.42092 -11.5272,5.88075 -15.20734,6.08267 -102.78337,5.63963 -49.95546,-0.25272 -160.01023,-1.52414 -244.56612,-2.82535 z"
       style="fill:#f2f2f2;stroke-width:2.85714" />
    <path
       transform="scale(0.26458333)"
       id="path57"
       d="m 419.62754,274.54629 c -0.58085,-0.49462 -64.69897,-1.70456 -142.48468,-2.68877 -77.78572,-0.98421 -153.30527,-2.63901 -167.82124,-3.67735 L 82.928949,266.29228 99.321617,254.17324 C 119.09506,239.5548 121.63577,239.1315 195.90108,238.0826 c 66.10876,-0.93371 107.15846,-4.22102 59.81321,-4.78991 -51.73828,-0.62169 -164.434049,-5.34578 -166.048874,-6.96061 -0.870867,-0.87086 1.363869,-3.16072 4.966081,-5.08857 11.676773,-6.24922 528.912993,0.85458 603.939933,8.2946 l 20,1.9833 -15.71429,10.73132 c -8.64285,5.90222 -24.71428,13.41865 -35.71428,16.70317 -11,3.28452 -24.82655,8.42757 -30.72569,11.429 -9.9898,5.08274 -17.75831,5.44355 -113.22957,5.25892 -56.37717,-0.10903 -102.97917,-0.60292 -103.56006,-1.09753 z"
       style="fill:#f2f2f2;stroke-width:2.85714" />
    <path
       transform="scale(0.26458333)"
       id="path59"
       d="m 412.46926,275.22394 c -6.07237,-1.0554 -40.61212,-1.99473 -76.75497,-2.08741 -82.14664,-0.21063 -211.33904,-3.32217 -234.9715,-5.65918 L 82.914159,265.71429 98.66677,254.28571 c 8.66394,-6.28571 19.25825,-12.24073 23.54292,-13.23338 4.28467,-0.99265 29.96888,-1.95694 57.07602,-2.14286 27.10715,-0.18592 49.28572,-1.42984 49.28572,-2.76426 0,-2.90148 -43.53075,-6.04609 -87.14286,-6.29508 -17.28571,-0.0987 -36.57143,-1.12799 -42.857141,-2.28733 -62.550672,-11.53688 208.845341,-12.33545 532.857141,-1.56793 32.21429,1.07055 65,2.78918 72.85714,3.81919 l 14.28572,1.87274 -17.61052,11.56804 c -9.6858,6.36243 -25.75722,13.81347 -35.71428,16.55789 -9.95709,2.74441 -21.31806,7.12354 -25.24663,9.73141 -6.22157,4.13001 -20.64357,4.92583 -111.81646,6.17015 -57.57045,0.78571 -109.64188,0.56506 -115.71428,-0.49035 z M 265.07552,233.63745 c -5.85132,-0.61394 -16.13703,-0.62243 -22.85714,-0.0189 -6.72011,0.60355 -1.93267,1.10586 10.63876,1.11624 12.57143,0.0104 18.0697,-0.48344 12.21838,-1.09738 z"
       style="fill:#f2f2f2;stroke-width:2.85714" />
    <path
       transform="scale(0.26458333)"
       id="path61"
       d="m 421.38363,276.15013 c -1.0374,-1.04223 -31.41834,-1.77671 -199.95506,-4.83404 -56.57143,-1.02624 -111.09726,-2.70647 -121.16852,-3.73384 l -18.311369,-1.86796 16.882802,-11.72476 c 9.285547,-6.44862 20.133597,-12.50875 24.106797,-13.46696 3.9732,-0.9582 28.7232,-1.89832 55,-2.08914 26.73951,-0.19418 47.77601,-1.49822 47.77601,-2.96161 0,-1.43807 -2.25,-2.62277 -5,-2.63267 -19.08668,-0.0687 -99.79638,-3.34848 -114.91222,-4.66971 -17.185418,-1.50212 -18.088465,-1.91778 -12.857147,-5.91801 4.935917,-3.77435 30.349527,-4.10091 207.055077,-2.66064 196.96877,1.60542 371.46097,5.93428 402.85714,9.99419 l 15.71429,2.03206 -15.84429,10.63662 c -8.71437,5.85015 -26.07151,13.96738 -38.57143,18.03829 -12.49994,4.07092 -24.52954,8.88489 -26.73245,10.69772 -2.7924,2.29789 -35.96135,3.72866 -109.52843,4.72462 -58.03769,0.78571 -105.96772,0.98184 -106.5112,0.43584 z M 260.75357,233.70305 c -3.51411,-0.67817 -9.94268,-0.69572 -14.28571,-0.039 -4.34304,0.65673 -1.46786,1.2116 6.38928,1.23305 7.85715,0.0215 11.41054,-0.51587 7.89643,-1.19405 z"
       style="fill:#f2f2f2;stroke-width:2.85714" />
    <path
       transform="scale(0.26458333)"
       id="path63"
       d="m 421.90017,276.71112 c -0.58706,-0.53743 -107.13162,-3.21762 -220.4716,-5.54608 -47.14286,-0.9685 -93.30929,-2.59113 -102.592078,-3.60583 L 81.958697,265.71429 100.26506,252.85714 118.57143,240 l 51.90742,-1.42857 c 28.54908,-0.78572 52.72827,-2.25062 53.73153,-3.25534 1.00326,-1.00473 -22.35508,-2.64345 -51.90742,-3.64161 -29.55234,-0.99816 -60.76905,-2.55456 -69.37046,-3.45865 -14.656892,-1.54059 -15.284839,-1.91469 -10.000003,-5.9575 4.954135,-3.78983 30.274083,-4.11273 208.496073,-2.65884 199.89303,1.63066 368.70863,5.77437 400.76217,9.837 l 16.38069,2.07618 -13.8688,9.58553 c -7.62786,5.27204 -26.91357,14.83314 -42.85714,21.24689 l -28.98835,11.66135 -105.24268,1.56821 c -57.88349,0.86251 -105.45492,1.37393 -105.71429,1.13647 z M 257.91152,233.84018 c -1.93438,-0.78264 -5.79152,-0.83028 -8.57143,-0.10587 -2.77991,0.72441 -1.19723,1.36475 3.51705,1.42298 4.71429,0.0582 6.98876,-0.53447 5.05438,-1.31711 z"
       style="fill:#f2f2f2;stroke-width:2.85714" />
    <path
       transform="scale(0.26458333)"
       id="path65"
       d="M 372.85714,275.36039 C 344.57143,274.38004 274.5,272.63787 217.14286,271.48892 159.78571,270.33997 105.82344,268.57065 97.226695,267.5571 l -15.630448,-1.84281 19.916163,-13.57803 19.91616,-13.57802 37.14286,-0.24371 c 65.80587,-0.43177 72.31588,-4.09986 11.42857,-6.43945 -29.85714,-1.14727 -60.44429,-2.80907 -67.97143,-3.69291 -11.978207,-1.40647 -13.225864,-2.16139 -10,-6.05068 3.297621,-3.97581 25.49721,-4.25562 210.82857,-2.6574 204.37432,1.76245 373.57015,6.01388 401.42857,10.08682 l 14.28572,2.08859 -15.71429,10.50543 c -8.64285,5.778 -27.92857,15.33734 -42.85714,21.24299 l -27.14286,10.73755 -104.28571,1.5037 c -57.35714,0.82703 -127.42857,0.70158 -155.71429,-0.27878 z"
       style="fill:#f2f2f2;stroke-width:2.85714" />
    <path
       transform="scale(0.26458333)"
       id="path67"
       d="M 421.80106,276.56689 C 421.48643,276.25011 352.4882,274.56201 268.47165,272.81556 184.4551,271.06911 108,268.7349 98.571429,267.62841 l -17.142858,-2.01178 19.969499,-13.5226 19.9695,-13.5226 34.31621,-0.16466 c 58.60479,-0.2812 63.79835,-4.23158 8.60193,-6.5429 -65.831006,-2.75664 -76.871992,-4.16913 -72.621583,-9.29055 2.761676,-3.32762 25.767543,-3.99414 136.542863,-3.95591 185.28095,0.064 450.32155,6.21823 478.93587,11.12096 l 11.42857,1.95815 -15.71429,10.45751 C 694.21429,247.90565 674.92857,257.48822 660,263.44862 l -27.14286,10.83709 -105.24203,1.42858 C 469.732,276.5 422.11566,276.88367 421.80106,276.56689 Z"
       style="fill:#f2f2f2;stroke-width:2.85714" />
  </g>
</svg>
